0
SECTION
2
HEADER
9
$INSUNITS
70
4
0
ENDSEC
0
SECTION
2
TABLES
0
TABLE
2
LTYPE
0
LTYPE
72
65
70
64
2
CONTINUOUS
3
______
73
0
40
0
0
ENDTAB
0
TABLE
2
LAYER
0
ENDTAB
0
ENDSEC
0
SECTION
2
ENTITIES
0
LINE
8
0
10
155.4503565
20
-94.7018663
11
129.4730416
21
-103.6465731
0
LINE
8
0
10
128.8530912
20
-104.9176599
11
136.0167597
21
-125.7224642
0
LINE
8
0
10
136.0428491
20
-125.8114358
11
140.1584591
21
-142.7126097
0
LINE
8
0
10
140.1716139
20
-142.7753033
11
142.7666722
21
-157.4703767
0
LINE
8
0
10
143.4485556
20
-158.2495026
11
180.0619677
21
-169.8855052
0
LINE
8
0
10
180.268704
20
-169.9278438
11
196.9517224
21
-171.5392657
0
LINE
8
0
10
197.1975994
20
-171.5949406
11
215.7654249
21
-178.3530764
0
LINE
8
0
10
215.9672697
20
-178.4535962
11
231.5695103
21
-188.5653518
0
LINE
8
0
10
232.9520458
20
-188.270818
11
244.8935892
21
-169.8824536
0
LINE
8
0
10
245.6250337
20
-169.4328579
11
253.4323507
21
-168.5908557
0
LINE
8
0
10
254.2957743
20
-167.8371188
11
264.2608006
21
-127.618254
0
LINE
8
0
10
263.5395199
20
-126.4093477
11
242.6037193
21
-121.0182974
0
LINE
8
0
10
241.8555242
20
-119.9801324
11
243.2888401
21
-99.4827597
0
LINE
8
0
10
242.3610325
20
-98.4154391
11
226.7354461
21
-97.3227917
0
LINE
8
0
10
225.8052106
20
-96.3212316
11
225.8226157
21
-91.9656884
0
LINE
8
0
10
224.8923802
20
-90.9641283
11
203.2167236
21
-89.4484187
0
LINE
8
0
10
202.2864841
20
-88.4480329
11
202.2961662
21
-85.0167335
0
LINE
8
0
10
201.3136226
20
-84.0140641
11
178.2966689
21
-83.6123017
0
LINE
8
0
10
177.2794904
20
-84.5887464
11
177.2261428
21
-86.8676432
0
LINE
8
0
10
176.1915172
20
-87.843631
11
157.067572
21
-87.1758081
0
LINE
8
0
10
156.0328095
20
-88.1917505
11
156.1246513
21
-93.7397961
0
ARC
8
0
10
129.7986098
20
-104.5920917
40
1
50
109.000002
51
199.000002
0
ARC
8
0
10
135.0712411
20
-126.0480324
40
1
50
13.6857552
51
19.000002
0
ARC
8
0
10
139.1868511
20
-142.9492063
40
1
50
10.0148257
51
13.6857552
0
ARC
8
0
10
143.751435
20
-157.2964737
40
1
50
190.0148257
51
252.3693712
0
ARC
8
0
10
180.3648471
20
-168.9324763
40
1
50
252.3693712
51
264.4828841
0
ARC
8
0
10
196.8555793
20
-172.5346332
40
1
50
70.0000019
51
84.4828841
0
ARC
8
0
10
215.4234048
20
-179.292769
40
1
50
57.0528714
51
70.0000019
0
ARC
8
0
10
232.1133752
20
-187.726179
40
1
50
237.0528714
51
327.0000027
0
ARC
8
0
10
245.7322598
20
-170.4270926
40
1
50
96.1554367
51
147.0000027
0
ARC
8
0
10
253.3251246
20
-167.596621
40
1
50
276.1554367
51
346.0840775
0
ARC
8
0
10
263.2901509
20
-127.3777562
40
1
50
346.0840775
51
75.5598234
0
ARC
8
0
10
242.8530883
20
-120.0498889
40
1
50
175.9999987
51
255.5598234
0
ARC
8
0
10
242.291276
20
-99.4130032
40
1
50
355.9999987
51
85.9999987
0
ARC
8
0
10
226.8052026
20
-96.3252276
40
1
50
179.7710455
51
265.9999987
0
ARC
8
0
10
224.8226237
20
-91.9616924
40
1
50
359.7710455
51
85.9999987
0
ARC
8
0
10
203.2864801
20
-88.4508546
40
1
50
179.8383283
51
265.9999987
0
ARC
8
0
10
201.2961702
20
-85.0139118
40
1
50
359.8383283
51
89.0000004
0
ARC
8
0
10
178.2792165
20
-84.6121494
40
1
50
89.0000004
51
178.6589844
0
ARC
8
0
10
176.2264167
20
-86.8442402
40
1
50
267.9999998
51
358.6589844
0
ARC
8
0
10
157.0326725
20
-88.1751989
40
1
50
87.9999998
51
180.9483801
0
ARC
8
0
10
155.1247883
20
-93.7563477
40
1
50
289.000002
51
0.9483801
0
LINE
8
0
10
157.2503054
20
-96.1973355
11
132.015215
21
-104.8864739
0
LINE
8
0
10
131.3952646
20
-106.1575607
11
137.2580264
21
-123.1842574
0
LINE
8
0
10
137.2821004
20
-123.2651007
11
141.5725862
21
-140.2638739
0
LINE
8
0
10
141.5860058
20
-140.3250584
11
144.524685
21
-156.0641402
0
LINE
8
0
10
145.2069971
20
-156.8343186
11
180.3084734
21
-167.9015396
0
LINE
8
0
10
180.5094424
20
-167.9428352
11
197.6376297
21
-169.6596072
0
LINE
8
0
10
197.8799187
20
-169.714929
11
216.4443545
21
-176.4718311
0
LINE
8
0
10
216.6551744
20
-176.5782363
11
231.0518516
21
-186.129633
0
LINE
8
0
10
232.4433622
20
-185.8409846
11
243.807163
21
-168.3422658
0
LINE
8
0
10
244.5386075
20
-167.8926701
11
252.3445761
21
-167.0508133
0
LINE
8
0
10
253.2084359
20
-166.295309
11
262.393046
21
-128.9349809
0
LINE
8
0
10
261.6725263
20
-127.728151
11
240.5114059
21
-122.2511697
0
LINE
8
0
10
239.764408
20
-121.2133137
11
241.1541991
21
-101.3383748
0
LINE
8
0
10
240.2263915
20
-100.2710543
11
224.4317989
21
-99.1665888
0
LINE
8
0
10
223.5022068
20
-98.1329368
11
223.6568247
21
-93.8512624
0
LINE
8
0
10
222.7272326
20
-92.8176103
11
201.2641058
21
-91.3167622
0
LINE
8
0
10
200.3339911
20
-90.3352461
11
200.2798659
21
-86.962976
0
LINE
8
0
10
199.2974471
20
-85.9791763
11
180.2534385
21
-85.6467619
0
LINE
8
0
10
179.2364824
20
-86.6151073
11
179.1630613
21
-88.944608
0
LINE
8
0
10
178.1286581
20
-89.9124965
11
158.9759092
21
-89.2436678
0
LINE
8
0
10
157.941015
20
-90.2398119
11
157.9247319
21
-95.2550636
0
ARC
8
0
10
132.3407832
20
-105.8319925
40
1
50
109.000002
51
199.000002
0
ARC
8
0
10
136.3125078
20
-123.5098256
40
1
50
14.1655761
51
19.000002
0
ARC
8
0
10
140.6029936
20
-140.5085988
40
1
50
10.5760461
51
14.1655761
0
ARC
8
0
10
145.5076972
20
-155.8805998
40
1
50
190.5760461
51
252.5003433
0
ARC
8
0
10
180.6091735
20
-166.9478208
40
1
50
252.5003433
51
264.2763136
0
ARC
8
0
10
197.5378986
20
-170.6546216
40
1
50
70.0000019
51
84.2763136
0
ARC
8
0
10
216.1023344
20
-177.4115237
40
1
50
56.4379313
51
70.0000019
0
ARC
8
0
10
231.6046916
20
-185.2963456
40
1
50
236.4379313
51
327.0000027
0
ARC
8
0
10
244.6458336
20
-168.8869048
40
1
50
96.1554367
51
147.0000027
0
ARC
8
0
10
252.23735
20
-166.0565786
40
1
50
276.1554367
51
346.1883805
0
ARC
8
0
10
261.4219601
20
-128.6962505
40
1
50
346.1883805
51
75.488981
0
ARC
8
0
10
240.7619721
20
-121.2830702
40
1
50
175.9999987
51
255.488981
0
ARC
8
0
10
240.156635
20
-101.2686183
40
1
50
355.9999987
51
85.9999983
0
ARC
8
0
10
224.5015554
20
-98.1690248
40
1
50
177.9318608
51
265.9999983
0
ARC
8
0
10
222.6574761
20
-93.8151744
40
1
50
357.9318608
51
85.9999987
0
ARC
8
0
10
201.3338623
20
-90.3191981
40
1
50
180.9195222
51
265.9999987
0
ARC
8
0
10
199.2799947
20
-86.979024
40
1
50
0.9195222
51
89.0000004
0
ARC
8
0
10
180.2359861
20
-86.6466096
40
1
50
89.0000004
51
178.1947525
0
ARC
8
0
10
178.1635576
20
-88.9131057
40
1
50
267.9999998
51
358.1947525
0
ARC
8
0
10
158.9410097
20
-90.2430586
40
1
50
87.9999998
51
179.8139775
0
ARC
8
0
10
156.9247372
20
-95.2518169
40
1
50
289.000002
51
359.8139775
0
ENDSEC
0
EOF