0
SECTION
2
HEADER
9
$INSUNITS
70
4
0
ENDSEC
0
SECTION
2
TABLES
0
TABLE
2
LTYPE
0
LTYPE
72
65
70
64
2
CONTINUOUS
3
______
73
0
40
0
0
ENDTAB
0
TABLE
2
LAYER
0
ENDTAB
0
ENDSEC
0
SECTION
2
ENTITIES
0
LINE
8
0
10
153.3880932
20
-104.0576494
11
130.048039
21
-110.3115981
0
LINE
8
0
10
129.3409322
20
-111.5363429
11
142.6498712
21
-161.2059787
0
LINE
8
0
10
143.358222
20
-161.913418
11
193.4735823
21
-175.2726476
0
LINE
8
0
10
193.5192686
20
-175.2859985
11
245.0421791
21
-191.6830837
0
LINE
8
0
10
246.1837912
20
-191.2753074
11
256.7479836
21
-175.0287573
0
LINE
8
0
10
256.9072881
20
-174.5520654
11
259.2206028
21
-140.830282
0
LINE
8
0
10
259.2142321
20
-140.630105
11
257.1630792
21
-125.1958418
0
LINE
8
0
10
256.2816534
20
-124.3336324
11
237.3081232
21
-122.2365301
0
LINE
8
0
10
236.4244101
20
-121.1293797
11
238.3484832
21
-104.2420076
0
LINE
8
0
10
237.4681145
20
-103.1352325
11
221.6377549
21
-101.3315909
0
LINE
8
0
10
220.7541664
20
-100.2579793
11
220.8395865
21
-99.1941812
0
LINE
8
0
10
219.955998
20
-98.1205696
11
195.3529046
21
-95.3174012
0
LINE
8
0
10
194.466415
20
-94.3486152
11
194.1836918
21
-82.9454996
0
LINE
8
0
10
193.1578221
20
-81.9706282
11
175.1572266
21
-82.4419904
0
LINE
8
0
10
174.1835653
20
-83.4596348
11
174.2300368
21
-86.0428157
0
LINE
8
0
10
173.3173543
20
-87.0569975
11
153.921523
21
-88.7539129
0
LINE
8
0
10
153.0122321
20
-89.8343343
11
154.1257208
21
-103.0074969
0
ARC
8
0
10
130.306858
20
-111.2775239
40
1
50
104.9999979
51
194.9999979
0
ARC
8
0
10
143.615797
20
-160.9471597
40
1
50
194.9999979
51
255.0737801
0
ARC
8
0
10
193.2160073
20
-176.2389059
40
1
50
72.3464093
51
75.0737801
0
ARC
8
0
10
245.3454404
20
-190.7301763
40
1
50
252.3464093
51
326.9663766
0
ARC
8
0
10
255.9096328
20
-174.4836262
40
1
50
326.9663766
51
356.0756551
0
ARC
8
0
10
258.2229475
20
-140.7618428
40
1
50
356.0756551
51
7.5700247
0
ARC
8
0
10
256.1717946
20
-125.3275796
40
1
50
7.5700247
51
83.6928239
0
ARC
8
0
10
237.417982
20
-121.2425829
40
1
50
173.5000011
51
263.6928239
0
ARC
8
0
10
237.3549113
20
-104.1288044
40
1
50
353.5000011
51
83.5000011
0
ARC
8
0
10
221.7509581
20
-100.338019
40
1
50
175.4091524
51
263.5000011
0
ARC
8
0
10
219.8427948
20
-99.1141415
40
1
50
355.4091524
51
83.5000011
0
ARC
8
0
10
195.4661078
20
-94.3238293
40
1
50
181.4202729
51
263.5000011
0
ARC
8
0
10
193.183999
20
-82.9702855
40
1
50
1.4202729
51
91.4999973
0
ARC
8
0
10
175.1834035
20
-83.4416477
40
1
50
91.4999973
51
181.0306405
0
ARC
8
0
10
173.2301986
20
-86.0608028
40
1
50
274.9999976
51
1.0306405
0
ARC
8
0
10
154.0086787
20
-89.7501076
40
1
50
94.9999976
51
184.8315587
0
ARC
8
0
10
153.1292742
20
-103.0917236
40
1
50
284.9999979
51
4.8315587
0
ENDSEC
0
EOF