0
SECTION
2
HEADER
9
$INSUNITS
70
4
0
ENDSEC
0
SECTION
2
TABLES
0
TABLE
2
LTYPE
0
LTYPE
72
65
70
64
2
CONTINUOUS
3
______
73
0
40
0
0
ENDTAB
0
TABLE
2
LAYER
0
ENDTAB
0
ENDSEC
0
SECTION
2
ENTITIES
0
LINE
8
0
10
157.8001495
20
-96.5368193
11
132.6507584
21
-105.1964491
0
LINE
8
0
10
132.030808
20
-106.4675359
11
137.5683401
21
-122.5496968
0
LINE
8
0
10
137.5919044
20
-122.6285297
11
141.9260896
21
-139.6515685
0
LINE
8
0
10
141.9396165
20
-139.7126214
11
144.9194022
21
-155.4813029
0
LINE
8
0
10
145.5989039
20
-156.2485767
11
180.8680425
21
-167.466679
0
LINE
8
0
10
181.0641903
20
-167.5079861
11
198.2822485
21
-169.3602603
0
LINE
8
0
10
198.5173083
20
-169.414831
11
216.1487681
21
-175.8321575
0
LINE
8
0
10
216.3538894
20
-175.9348099
11
230.9067942
21
-185.4474904
0
LINE
8
0
10
232.2926062
20
-185.1550892
11
243.3878277
21
-168.0699463
0
LINE
8
0
10
244.1192722
20
-167.6203506
11
251.9239338
21
-166.7786348
0
LINE
8
0
10
252.7882128
20
-166.0214186
11
261.785012
21
-129.1448161
0
LINE
8
0
10
261.054377
20
-127.9372402
11
239.9880343
21
-122.709057
0
LINE
8
0
10
239.2313403
20
-121.6687431
11
240.6205388
21
-101.8022787
0
LINE
8
0
10
239.6927312
20
-100.7349581
11
223.814022
21
-99.6246106
0
LINE
8
0
10
222.8851394
20
-98.5748941
11
223.1068151
21
-94.3301369
0
LINE
8
0
10
222.1779325
20
-93.2804204
11
200.5711599
21
-91.7695277
0
LINE
8
0
10
199.6412773
20
-90.7451008
11
199.7285797
21
-87.4963443
0
LINE
8
0
10
198.746393
20
-86.4696338
11
180.7656505
21
-86.1557787
0
LINE
8
0
10
179.7482524
20
-87.1452097
11
179.7243115
21
-89.4434111
0
LINE
8
0
10
178.6894663
20
-90.4323852
11
159.4700204
21
-89.7612273
0
LINE
8
0
10
158.4351544
20
-90.7688004
11
158.4745478
21
-95.5831184
0
ARC
8
0
10
132.9763266
20
-106.1419677
40
1
50
109.000002
51
199.000002
0
ARC
8
0
10
136.6228215
20
-122.875265
40
1
50
14.284408
51
19.000002
0
ARC
8
0
10
140.9570067
20
-139.8983038
40
1
50
10.7009205
51
14.284408
0
ARC
8
0
10
145.902012
20
-155.2956205
40
1
50
190.7009205
51
252.3556215
0
ARC
8
0
10
181.1711506
20
-166.5137228
40
1
50
252.3556215
51
263.8598804
0
ARC
8
0
10
198.1752882
20
-170.3545236
40
1
50
70.0000019
51
83.8598804
0
ARC
8
0
10
215.806748
20
-176.7718501
40
1
50
56.8288789
51
70.0000019
0
ARC
8
0
10
231.4539356
20
-184.6104502
40
1
50
236.8288789
51
327.0000027
0
ARC
8
0
10
244.2264983
20
-168.6145853
40
1
50
96.1554367
51
147.0000027
0
ARC
8
0
10
251.8167077
20
-165.7844001
40
1
50
276.1554367
51
346.2893631
0
ARC
8
0
10
260.8135069
20
-128.9077976
40
1
50
346.2893631
51
76.0621005
0
ARC
8
0
10
240.2289044
20
-121.7384996
40
1
50
175.9999987
51
256.0621005
0
ARC
8
0
10
239.6229747
20
-101.7325222
40
1
50
355.9999987
51
85.9999987
0
ARC
8
0
10
223.8837785
20
-98.6270465
40
1
50
177.0105313
51
265.9999987
0
ARC
8
0
10
222.108176
20
-94.2779845
40
1
50
357.0105313
51
85.9999987
0
ARC
8
0
10
200.6409164
20
-90.7719636
40
1
50
178.4606897
51
265.9999987
0
ARC
8
0
10
198.7289406
20
-87.4694815
40
1
50
358.4606897
51
89.0000004
0
ARC
8
0
10
180.7481981
20
-87.1556264
40
1
50
89.0000004
51
179.4031562
0
ARC
8
0
10
178.7243658
20
-89.4329944
40
1
50
267.9999998
51
359.4031562
0
ARC
8
0
10
159.4351209
20
-90.7606181
40
1
50
87.9999998
51
180.4688165
0
ARC
8
0
10
157.4745813
20
-95.5913007
40
1
50
289.000002
51
0.4688165
0
ENDSEC
0
EOF