0
SECTION
2
HEADER
9
$INSUNITS
70
4
0
ENDSEC
0
SECTION
2
TABLES
0
TABLE
2
LTYPE
0
LTYPE
72
65
70
64
2
CONTINUOUS
3
______
73
0
40
0
0
ENDTAB
0
TABLE
2
LAYER
0
ENDTAB
0
ENDSEC
0
SECTION
2
ENTITIES
0
LINE
8
0
10
155.4503565
20
-94.7018663
11
129.4730416
21
-103.6465731
0
LINE
8
0
10
128.8530912
20
-104.9176599
11
136.0167597
21
-125.7224642
0
LINE
8
0
10
136.0428491
20
-125.8114358
11
140.1584591
21
-142.7126097
0
LINE
8
0
10
140.1716139
20
-142.7753033
11
142.7666722
21
-157.4703767
0
LINE
8
0
10
143.4485556
20
-158.2495026
11
180.0619677
21
-169.8855052
0
LINE
8
0
10
180.268704
20
-169.9278438
11
196.9517224
21
-171.5392657
0
LINE
8
0
10
197.1975994
20
-171.5949406
11
215.7654249
21
-178.3530764
0
LINE
8
0
10
215.9672697
20
-178.4535962
11
231.5695103
21
-188.5653518
0
LINE
8
0
10
232.9520458
20
-188.270818
11
244.8935892
21
-169.8824536
0
LINE
8
0
10
245.6250337
20
-169.4328579
11
253.4323507
21
-168.5908557
0
LINE
8
0
10
254.2957743
20
-167.8371188
11
264.2608006
21
-127.618254
0
LINE
8
0
10
263.5395199
20
-126.4093477
11
242.6037193
21
-121.0182974
0
LINE
8
0
10
241.8555242
20
-119.9801324
11
243.2888401
21
-99.4827597
0
LINE
8
0
10
242.3610325
20
-98.4154391
11
226.7354461
21
-97.3227917
0
LINE
8
0
10
225.8052106
20
-96.3212316
11
225.8226157
21
-91.9656884
0
LINE
8
0
10
224.8923802
20
-90.9641283
11
203.2167236
21
-89.4484187
0
LINE
8
0
10
202.2864841
20
-88.4480329
11
202.2961662
21
-85.0167335
0
LINE
8
0
10
201.3136226
20
-84.0140641
11
178.2966689
21
-83.6123017
0
LINE
8
0
10
177.2794904
20
-84.5887464
11
177.2261428
21
-86.8676432
0
LINE
8
0
10
176.1915172
20
-87.843631
11
157.067572
21
-87.1758081
0
LINE
8
0
10
156.0328095
20
-88.1917505
11
156.1246513
21
-93.7397961
0
ARC
8
0
10
129.7986098
20
-104.5920917
40
1
50
109.000002
51
199.000002
0
ARC
8
0
10
135.0712411
20
-126.0480324
40
1
50
13.6857552
51
19.000002
0
ARC
8
0
10
139.1868511
20
-142.9492063
40
1
50
10.0148257
51
13.6857552
0
ARC
8
0
10
143.751435
20
-157.2964737
40
1
50
190.0148257
51
252.3693712
0
ARC
8
0
10
180.3648471
20
-168.9324763
40
1
50
252.3693712
51
264.4828841
0
ARC
8
0
10
196.8555793
20
-172.5346332
40
1
50
70.0000019
51
84.4828841
0
ARC
8
0
10
215.4234048
20
-179.292769
40
1
50
57.0528714
51
70.0000019
0
ARC
8
0
10
232.1133752
20
-187.726179
40
1
50
237.0528714
51
327.0000027
0
ARC
8
0
10
245.7322598
20
-170.4270926
40
1
50
96.1554367
51
147.0000027
0
ARC
8
0
10
253.3251246
20
-167.596621
40
1
50
276.1554367
51
346.0840775
0
ARC
8
0
10
263.2901509
20
-127.3777562
40
1
50
346.0840775
51
75.5598234
0
ARC
8
0
10
242.8530883
20
-120.0498889
40
1
50
175.9999987
51
255.5598234
0
ARC
8
0
10
242.291276
20
-99.4130032
40
1
50
355.9999987
51
85.9999987
0
ARC
8
0
10
226.8052026
20
-96.3252276
40
1
50
179.7710455
51
265.9999987
0
ARC
8
0
10
224.8226237
20
-91.9616924
40
1
50
359.7710455
51
85.9999987
0
ARC
8
0
10
203.2864801
20
-88.4508546
40
1
50
179.8383283
51
265.9999987
0
ARC
8
0
10
201.2961702
20
-85.0139118
40
1
50
359.8383283
51
89.0000004
0
ARC
8
0
10
178.2792165
20
-84.6121494
40
1
50
89.0000004
51
178.6589844
0
ARC
8
0
10
176.2264167
20
-86.8442402
40
1
50
267.9999998
51
358.6589844
0
ARC
8
0
10
157.0326725
20
-88.1751989
40
1
50
87.9999998
51
180.9483801
0
ARC
8
0
10
155.1247883
20
-93.7563477
40
1
50
289.000002
51
0.9483801
0
ENDSEC
0
EOF