0
SECTION
2
HEADER
9
$INSUNITS
70
4
0
ENDSEC
0
SECTION
2
TABLES
0
TABLE
2
LTYPE
0
LTYPE
72
65
70
64
2
CONTINUOUS
3
______
73
0
40
0
0
ENDTAB
0
TABLE
2
LAYER
0
ENDTAB
0
ENDSEC
0
SECTION
2
ENTITIES
0
LINE
8
0
10
157.5339767
20
-98.5321873
11
134.9387145
21
-106.3123599
0
LINE
8
0
10
134.3187641
20
-107.5834467
11
138.6854577
21
-120.2652458
0
LINE
8
0
10
138.7071691
20
-120.3369123
11
143.198705
21
-137.4472659
0
LINE
8
0
10
143.2126116
20
-137.5078521
11
146.3404915
21
-153.3828188
0
LINE
8
0
10
147.0100744
20
-154.1397318
11
182.8822386
21
-165.9012243
0
LINE
8
0
10
183.0615134
20
-165.9422083
11
200.6025089
21
-168.2830815
0
LINE
8
0
10
200.8122501
20
-168.3346014
11
215.0843522
21
-173.5292218
0
LINE
8
0
10
215.2692586
20
-173.6190035
11
230.3848159
21
-182.9903244
0
LINE
8
0
10
231.750413
20
-182.6850525
11
241.8647745
21
-167.1103015
0
LINE
8
0
10
242.635954
20
-166.6572206
11
247.9245832
21
-166.2994695
0
LINE
8
0
10
248.8173804
20
-165.5807591
11
259.2281976
21
-129.7490558
0
LINE
8
0
10
258.4671425
20
-128.4900942
11
238.1110805
21
-124.3515212
0
LINE
8
0
10
237.3127496
20
-123.3018126
11
238.6993619
21
-103.4723323
0
LINE
8
0
10
237.7715543
20
-102.4050117
11
224.6127162
21
-101.4848561
0
LINE
8
0
10
223.7641279
20
-100.8830733
11
221.4779213
21
-95.57831
0
LINE
8
0
10
220.629333
20
-94.9765272
11
201.2467181
21
-93.6211627
0
LINE
8
0
10
200.4287631
20
-93.0839988
11
198.1989396
21
-88.7846092
0
LINE
8
0
10
197.3286805
20
-88.2451617
11
182.5039599
21
-87.9863953
0
LINE
8
0
10
181.4873342
20
-88.9455902
11
181.3902012
21
-91.3329455
0
LINE
8
0
10
180.3561284
20
-92.2916835
11
160.9210687
21
-91.6129963
0
LINE
8
0
10
159.9330578
20
-92.3097674
11
158.1615199
21
-97.8892884
0
ARC
8
0
10
135.2642827
20
-107.2578785
40
1
50
109.000002
51
199.000002
0
ARC
8
0
10
137.7399391
20
-120.590814
40
1
50
14.7085159
51
19.000002
0
ARC
8
0
10
142.231475
20
-137.7011676
40
1
50
11.1463371
51
14.7085159
0
ARC
8
0
10
147.3216281
20
-153.1895033
40
1
50
191.1463371
51
251.8471105
0
ARC
8
0
10
183.1937923
20
-164.9509958
40
1
50
251.8471105
51
262.3986986
0
ARC
8
0
10
200.47023
20
-169.274294
40
1
50
70.0000019
51
82.3986986
0
ARC
8
0
10
214.7423321
20
-174.4689144
40
1
50
58.2019763
51
70.0000019
0
ARC
8
0
10
230.9117424
20
-182.1404135
40
1
50
238.2019763
51
327.0000027
0
ARC
8
0
10
242.7034451
20
-167.6549405
40
1
50
93.8698968
51
147.0000027
0
ARC
8
0
10
247.8570921
20
-165.3017496
40
1
50
273.8698968
51
343.7989019
0
ARC
8
0
10
258.2679093
20
-129.4700463
40
1
50
343.7989019
51
78.5078777
0
ARC
8
0
10
238.3103137
20
-123.3715691
40
1
50
175.9999987
51
258.5078777
0
ARC
8
0
10
237.7017978
20
-103.4025758
40
1
50
355.9999987
51
85.9999987
0
ARC
8
0
10
224.6824727
20
-100.487292
40
1
50
203.3147105
51
265.9999987
0
ARC
8
0
10
220.5595765
20
-95.9740913
40
1
50
23.3147105
51
85.9999987
0
ARC
8
0
10
201.3164746
20
-92.6235986
40
1
50
207.4129339
51
265.9999987
0
ARC
8
0
10
197.3112281
20
-89.2450094
40
1
50
27.4129339
51
89.0000004
0
ARC
8
0
10
182.4865075
20
-88.986243
40
1
50
89.0000004
51
177.670124
0
ARC
8
0
10
180.3910279
20
-91.2922927
40
1
50
267.9999998
51
357.670124
0
ARC
8
0
10
160.8861692
20
-92.6123871
40
1
50
87.9999998
51
162.3849837
0
ARC
8
0
10
157.2084085
20
-97.5866687
40
1
50
289.000002
51
342.3849837
0
ENDSEC
0
EOF