0
SECTION
2
HEADER
9
$INSUNITS
70
4
0
ENDSEC
0
SECTION
2
TABLES
0
TABLE
2
LTYPE
0
LTYPE
72
65
70
64
2
CONTINUOUS
3
______
73
0
40
0
0
ENDTAB
0
TABLE
2
LAYER
0
ENDTAB
0
ENDSEC
0
SECTION
2
ENTITIES
0
LINE
8
0
10
157.6180462
20
-97.0225708
11
133.1591931
21
-105.4444293
0
LINE
8
0
10
132.5392427
20
-106.7155161
11
137.8165896
21
-122.0420447
0
LINE
8
0
10
137.8397446
20
-122.1192754
11
142.2088929
21
-139.161725
0
LINE
8
0
10
142.222505
20
-139.2226733
11
145.2351855
21
-155.0150093
0
LINE
8
0
10
145.9124564
20
-155.7799677
11
181.3156758
21
-167.1187945
0
LINE
8
0
10
181.5080087
20
-167.160078
11
198.7979115
21
-169.1208249
0
LINE
8
0
10
199.0272497
20
-169.1747634
11
215.9122723
21
-175.320409
0
LINE
8
0
10
216.1128604
20
-175.4201157
11
230.7907695
21
-184.9016476
0
LINE
8
0
10
232.1720483
20
-184.6063007
11
243.050084
21
-167.8555947
0
LINE
8
0
10
243.788297
20
-167.4052924
11
251.0366833
21
-166.6734349
0
LINE
8
0
10
251.9054226
20
-165.9247809
11
261.2178048
21
-129.2784329
0
LINE
8
0
10
260.4805095
20
-128.0594063
11
239.5706258
21
-123.0744788
0
LINE
8
0
10
238.8049633
20
-122.031983
11
240.1936106
21
-102.1734017
0
LINE
8
0
10
239.265803
20
-101.1060811
11
224.0672035
21
-100.0432915
0
LINE
8
0
10
223.1398105
20
-99.1211784
11
222.7963388
21
-94.5819038
0
LINE
8
0
10
221.8689458
20
-93.6597907
11
200.8100428
21
-92.1872087
0
LINE
8
0
10
199.8871016
20
-91.3102735
11
199.4537701
21
-87.7442379
0
LINE
8
0
10
198.4785248
20
-86.8650191
11
180.9879669
21
-86.5597203
0
LINE
8
0
10
179.9894991
20
-87.3656381
11
179.4650195
21
-90.0187745
0
LINE
8
0
10
178.4491046
20
-90.8242354
11
159.7613339
21
-90.171644
0
LINE
8
0
10
158.7301904
20
-91.0844443
11
158.288722
21
-96.1636427
0
ARC
8
0
10
133.4847613
20
-106.3899479
40
1
50
109.000002
51
199.000002
0
ARC
8
0
10
136.871071
20
-122.3676129
40
1
50
14.3791554
51
19.000002
0
ARC
8
0
10
141.2402193
20
-139.4100625
40
1
50
10.8004604
51
14.3791554
0
ARC
8
0
10
146.2174712
20
-154.8276201
40
1
50
190.8004604
51
252.2409455
0
ARC
8
0
10
181.6206906
20
-166.1664469
40
1
50
252.2409455
51
263.5300613
0
ARC
8
0
10
198.6852296
20
-170.114456
40
1
50
70.0000019
51
83.5300613
0
ARC
8
0
10
215.5702522
20
-176.2601016
40
1
50
57.138632
51
70.0000019
0
ARC
8
0
10
231.3333777
20
-184.0616617
40
1
50
237.138632
51
327.0000027
0
ARC
8
0
10
243.8887546
20
-168.4002337
40
1
50
95.765522
51
147.0000027
0
ARC
8
0
10
250.9362257
20
-165.6784936
40
1
50
275.765522
51
345.7420786
0
ARC
8
0
10
260.2486079
20
-129.0321456
40
1
50
345.7420786
51
76.5909479
0
ARC
8
0
10
239.8025274
20
-122.1017395
40
1
50
175.9999987
51
256.5909479
0
ARC
8
0
10
239.1960465
20
-102.1036452
40
1
50
355.9999987
51
85.9999987
0
ARC
8
0
10
224.13696
20
-99.0457274
40
1
50
184.3271362
51
265.9999987
0
ARC
8
0
10
221.7991893
20
-94.6573548
40
1
50
4.3271362
51
85.9999987
0
ARC
8
0
10
200.8797993
20
-91.1896446
40
1
50
186.9283994
51
265.9999987
0
ARC
8
0
10
198.4610724
20
-87.8648668
40
1
50
6.9283994
51
89.0000004
0
ARC
8
0
10
180.9705145
20
-87.559568
40
1
50
89.0000004
51
168.817782
0
ARC
8
0
10
178.4840041
20
-89.8248446
40
1
50
267.9999998
51
348.817782
0
ARC
8
0
10
159.7264344
20
-91.1710348
40
1
50
87.9999998
51
175.032509
0
ARC
8
0
10
157.292478
20
-96.0770522
40
1
50
289.000002
51
355.032509
0
ENDSEC
0
EOF