0
SECTION
2
HEADER
9
$INSUNITS
70
4
0
ENDSEC
0
SECTION
2
TABLES
0
TABLE
2
LTYPE
0
LTYPE
72
65
70
64
2
CONTINUOUS
3
______
73
0
40
0
0
ENDTAB
0
TABLE
2
LAYER
0
ENDTAB
0
ENDSEC
0
SECTION
2
ENTITIES
0
LINE
8
0
10
157.8001495
20
-96.5368193
11
132.6507584
21
-105.1964491
0
LINE
8
0
10
132.030808
20
-106.4675359
11
137.5683401
21
-122.5496968
0
LINE
8
0
10
137.5919044
20
-122.6285297
11
141.9260896
21
-139.6515685
0
LINE
8
0
10
141.9396165
20
-139.7126214
11
144.9194022
21
-155.4813029
0
LINE
8
0
10
145.5989039
20
-156.2485767
11
180.8680425
21
-167.466679
0
LINE
8
0
10
181.0641903
20
-167.5079861
11
198.2822485
21
-169.3602603
0
LINE
8
0
10
198.5173083
20
-169.414831
11
216.1487681
21
-175.8321575
0
LINE
8
0
10
216.3538894
20
-175.9348099
11
230.9067942
21
-185.4474904
0
LINE
8
0
10
232.2926062
20
-185.1550892
11
243.3878277
21
-168.0699463
0
LINE
8
0
10
244.1192722
20
-167.6203506
11
251.9239338
21
-166.7786348
0
LINE
8
0
10
252.7882128
20
-166.0214186
11
261.785012
21
-129.1448161
0
LINE
8
0
10
261.054377
20
-127.9372402
11
239.9880343
21
-122.709057
0
LINE
8
0
10
239.2313403
20
-121.6687431
11
240.6205388
21
-101.8022787
0
LINE
8
0
10
239.6927312
20
-100.7349581
11
223.814022
21
-99.6246106
0
LINE
8
0
10
222.8851394
20
-98.5748941
11
223.1068151
21
-94.3301369
0
LINE
8
0
10
222.1779325
20
-93.2804204
11
200.5711599
21
-91.7695277
0
LINE
8
0
10
199.6412773
20
-90.7451008
11
199.7285797
21
-87.4963443
0
LINE
8
0
10
198.746393
20
-86.4696338
11
180.7656505
21
-86.1557787
0
LINE
8
0
10
179.7482524
20
-87.1452097
11
179.7243115
21
-89.4434111
0
LINE
8
0
10
178.6894663
20
-90.4323852
11
159.4700204
21
-89.7612273
0
LINE
8
0
10
158.4351544
20
-90.7688004
11
158.4745478
21
-95.5831184
0
ARC
8
0
10
132.9763266
20
-106.1419677
40
1
50
109.000002
51
199.000002
0
ARC
8
0
10
136.6228215
20
-122.875265
40
1
50
14.284408
51
19.000002
0
ARC
8
0
10
140.9570067
20
-139.8983038
40
1
50
10.7009205
51
14.284408
0
ARC
8
0
10
145.902012
20
-155.2956205
40
1
50
190.7009205
51
252.3556215
0
ARC
8
0
10
181.1711506
20
-166.5137228
40
1
50
252.3556215
51
263.8598804
0
ARC
8
0
10
198.1752882
20
-170.3545236
40
1
50
70.0000019
51
83.8598804
0
ARC
8
0
10
215.806748
20
-176.7718501
40
1
50
56.8288789
51
70.0000019
0
ARC
8
0
10
231.4539356
20
-184.6104502
40
1
50
236.8288789
51
327.0000027
0
ARC
8
0
10
244.2264983
20
-168.6145853
40
1
50
96.1554367
51
147.0000027
0
ARC
8
0
10
251.8167077
20
-165.7844001
40
1
50
276.1554367
51
346.2893631
0
ARC
8
0
10
260.8135069
20
-128.9077976
40
1
50
346.2893631
51
76.0621005
0
ARC
8
0
10
240.2289044
20
-121.7384996
40
1
50
175.9999987
51
256.0621005
0
ARC
8
0
10
239.6229747
20
-101.7325222
40
1
50
355.9999987
51
85.9999987
0
ARC
8
0
10
223.8837785
20
-98.6270465
40
1
50
177.0105313
51
265.9999987
0
ARC
8
0
10
222.108176
20
-94.2779845
40
1
50
357.0105313
51
85.9999987
0
ARC
8
0
10
200.6409164
20
-90.7719636
40
1
50
178.4606897
51
265.9999987
0
ARC
8
0
10
198.7289406
20
-87.4694815
40
1
50
358.4606897
51
89.0000004
0
ARC
8
0
10
180.7481981
20
-87.1556264
40
1
50
89.0000004
51
179.4031562
0
ARC
8
0
10
178.7243658
20
-89.4329944
40
1
50
267.9999998
51
359.4031562
0
ARC
8
0
10
159.4351209
20
-90.7606181
40
1
50
87.9999998
51
180.4688165
0
ARC
8
0
10
157.4745813
20
-95.5913007
40
1
50
289.000002
51
0.4688165
0
LINE
8
0
10
146.0187341
20
-154.6021467
11
163.1972098
21
-151.2629893
0
LINE
8
0
10
163.1972098
20
-151.2629893
11
160.0488613
21
-135.0661407
0
LINE
8
0
10
160.0488613
20
-135.0661407
11
142.8703856
21
-138.4052981
0
LINE
8
0
10
142.8703856
20
-138.4052981
11
146.0187341
21
-154.6021467
0
LINE
8
0
10
142.8176914
20
-138.1509522
11
159.7213934
21
-133.6216189
0
LINE
8
0
10
159.7213934
20
-133.6216189
11
155.4508792
21
-117.6838428
0
LINE
8
0
10
155.4508792
20
-117.6838428
11
138.5471772
21
-122.2131761
0
LINE
8
0
10
138.5471772
20
-122.2131761
11
142.8176914
21
-138.1509522
0
LINE
8
0
10
138.476869
20
-121.9631255
11
155.0234441
21
-116.2656828
0
LINE
8
0
10
155.0234441
20
-116.2656828
11
149.6515696
21
-100.6646263
0
LINE
8
0
10
149.6515696
20
-100.6646263
11
133.1049945
21
-106.362069
0
LINE
8
0
10
133.1049945
20
-106.362069
11
138.476869
21
-121.9631255
0
LINE
8
0
10
162.4320427
20
-143.9048146
11
179.7617339
21
-141.4692853
0
LINE
8
0
10
179.7617339
20
-141.4692853
11
177.4653777
21
-125.1298622
0
LINE
8
0
10
177.4653777
20
-125.1298622
11
160.1356865
21
-127.5653915
0
LINE
8
0
10
160.1356865
20
-127.5653915
11
162.4320427
21
-143.9048146
0
LINE
8
0
10
159.9496452
20
-125.7799006
11
177.4256621
21
-124.8640213
0
LINE
8
0
10
177.4256621
20
-124.8640213
11
176.5621188
21
-108.386634
0
LINE
8
0
10
176.5621188
20
-108.386634
11
159.0861019
21
-109.3025133
0
LINE
8
0
10
159.0861019
20
-109.3025133
11
159.9496452
21
-125.7799006
0
LINE
8
0
10
159.0563843
20
-107.5076022
11
176.5457238
21
-108.1183434
0
LINE
8
0
10
176.5457238
20
-108.1183434
11
177.1215655
21
-91.6283948
0
LINE
8
0
10
177.1215655
20
-91.6283948
11
159.632226
21
-91.0176536
0
LINE
8
0
10
159.632226
20
-91.0176536
11
159.0563843
21
-107.5076022
0
LINE
8
0
10
180.1053903
20
-137.9021368
11
197.602725
21
-138.2075539
0
LINE
8
0
10
197.602725
20
-138.2075539
11
197.8906897
21
-121.710067
0
LINE
8
0
10
197.8906897
20
-121.710067
11
180.393355
21
-121.4046499
0
LINE
8
0
10
180.393355
20
-121.4046499
11
180.1053903
21
-137.9021368
0
LINE
8
0
10
180.4020812
20
-120.904726
11
197.8994159
21
-121.2101431
0
LINE
8
0
10
197.8994159
20
-121.2101431
11
198.1873806
21
-104.7126562
0
LINE
8
0
10
198.1873806
20
-104.7126562
11
180.6900459
21
-104.4072391
0
LINE
8
0
10
180.6900459
20
-104.4072391
11
180.4020812
21
-120.904726
0
LINE
8
0
10
180.6987721
20
-103.9073152
11
198.1961068
21
-104.2127323
0
LINE
8
0
10
198.1961068
20
-104.2127323
11
198.4840715
21
-87.7152454
0
LINE
8
0
10
198.4840715
20
-87.7152454
11
180.9867368
21
-87.4098283
0
LINE
8
0
10
180.9867368
20
-87.4098283
11
180.6987721
21
-103.9073152
0
LINE
8
0
10
197.4047941
20
-142.7390042
11
214.5223772
21
-146.3774588
0
LINE
8
0
10
214.5223772
20
-146.3774588
11
217.9529201
21
-130.2380234
0
LINE
8
0
10
217.9529201
20
-130.2380234
11
200.835337
21
-126.5995688
0
LINE
8
0
10
200.835337
20
-126.5995688
11
197.4047941
21
-142.7390042
0
LINE
8
0
10
200.8862126
20
-126.3448528
11
218.2159038
21
-128.7803821
0
LINE
8
0
10
218.2159038
20
-128.7803821
11
220.51226
21
-112.440959
0
LINE
8
0
10
220.51226
20
-112.440959
11
203.1825688
21
-110.0054297
0
LINE
8
0
10
203.1825688
20
-110.0054297
11
200.8862126
21
-126.3448528
0
LINE
8
0
10
203.2155524
20
-109.7477853
11
220.6729232
21
-110.9685236
0
LINE
8
0
10
220.6729232
20
-110.9685236
11
221.823905
21
-94.5087167
0
LINE
8
0
10
221.823905
20
-94.5087167
11
204.3665342
21
-93.2879784
0
LINE
8
0
10
204.3665342
20
-93.2879784
11
203.2155524
21
-109.7477853
0
LINE
8
0
10
213.7722944
20
-149.9900556
11
230.7524696
21
-154.2236887
0
LINE
8
0
10
230.7524696
20
-154.2236887
11
234.7441808
21
-138.2138092
0
LINE
8
0
10
234.7441808
20
-138.2138092
11
217.7640056
21
-133.9801761
0
LINE
8
0
10
217.7640056
20
-133.9801761
11
213.7722944
21
-149.9900556
0
LINE
8
0
10
217.8237397
20
-133.7273909
11
235.0578754
21
-136.766234
0
LINE
8
0
10
235.0578754
20
-136.766234
11
237.9230703
21
-120.5169061
0
LINE
8
0
10
237.9230703
20
-120.5169061
11
220.6889346
21
-117.478063
0
LINE
8
0
10
220.6889346
20
-117.478063
11
217.8237397
21
-133.7273909
0
LINE
8
0
10
220.747792
20
-117.2035426
11
238.2051628
21
-118.4242809
0
LINE
8
0
10
238.2051628
20
-118.4242809
11
239.3561446
21
-101.964474
0
LINE
8
0
10
239.3561446
20
-101.964474
11
221.8987738
21
-100.7437357
0
LINE
8
0
10
221.8987738
20
-100.7437357
11
220.747792
21
-117.2035426
0
LINE
8
0
10
182.3570553
20
-166.4088657
11
199.7266129
21
-168.5415792
0
LINE
8
0
10
199.7266129
20
-168.5415792
11
201.7374571
21
-152.1645677
0
LINE
8
0
10
201.7374571
20
-152.1645677
11
184.3678995
21
-150.0318542
0
LINE
8
0
10
184.3678995
20
-150.0318542
11
182.3570553
21
-166.4088657
0
LINE
8
0
10
200.0052356
20
-168.62617
11
216.4498564
21
-174.6115225
0
LINE
8
0
10
216.4498564
20
-174.6115225
11
222.0931888
21
-159.1065942
0
LINE
8
0
10
222.0931888
20
-159.1065942
11
205.648568
21
-153.1212417
0
LINE
8
0
10
205.648568
20
-153.1212417
11
200.0052356
21
-168.62617
0
LINE
8
0
10
216.7020638
20
-174.7359482
11
231.3787987
21
-184.2671313
0
LINE
8
0
10
231.3787987
20
-184.2671313
11
240.3653428
21
-170.429067
0
LINE
8
0
10
240.3653428
20
-170.429067
11
225.6886079
21
-160.8978839
0
LINE
8
0
10
225.6886079
20
-160.8978839
11
216.7020638
21
-174.7359482
0
LINE
8
0
10
240.0670293
20
-129.2657266
11
232.4464896
21
-159.830042
0
LINE
8
0
10
232.4464896
20
-159.830042
11
248.4563691
21
-163.8217532
0
LINE
8
0
10
248.4563691
20
-163.8217532
11
256.0769088
21
-133.2574378
0
LINE
8
0
10
256.0769088
20
-133.2574378
11
240.0670293
21
-129.2657266
0
ENDSEC
0
EOF