0
SECTION
2
HEADER
9
$INSUNITS
70
4
0
ENDSEC
0
SECTION
2
TABLES
0
TABLE
2
LTYPE
0
LTYPE
72
65
70
64
2
CONTINUOUS
3
______
73
0
40
0
0
ENDTAB
0
TABLE
2
LAYER
0
ENDTAB
0
ENDSEC
0
SECTION
2
ENTITIES
0
LINE
8
0
10
143.6834061
20
-160.2335547
11
160.5871081
21
-155.7042214
0
LINE
8
0
10
160.5871081
20
-155.7042214
11
156.3165939
21
-139.7664453
0
LINE
8
0
10
156.3165939
20
-139.7664453
11
139.4128919
21
-144.2957786
0
LINE
8
0
10
139.4128919
20
-144.2957786
11
143.6834061
21
-160.2335547
0
LINE
8
0
10
139.2834823
20
-143.8128157
11
156.1871843
21
-139.2834824
0
LINE
8
0
10
156.1871843
20
-139.2834824
11
151.9166701
21
-123.3457063
0
LINE
8
0
10
151.9166701
20
-123.3457063
11
135.0129681
21
-127.8750396
0
LINE
8
0
10
135.0129681
20
-127.8750396
11
139.2834823
21
-143.8128157
0
LINE
8
0
10
134.8835585
20
-127.3920767
11
151.7872605
21
-122.8627434
0
LINE
8
0
10
151.7872605
20
-122.8627434
11
147.5167463
21
-106.9249673
0
LINE
8
0
10
147.5167463
20
-106.9249673
11
130.6130443
21
-111.4543006
0
LINE
8
0
10
130.6130443
20
-111.4543006
11
134.8835585
21
-127.3920767
0
LINE
8
0
10
158.6838056
20
-140.2849438
11
176.1172128
21
-138.7597183
0
LINE
8
0
10
176.1172128
20
-138.7597183
11
174.679143
21
-122.3225058
0
LINE
8
0
10
174.679143
20
-122.3225058
11
157.2457358
21
-123.8477313
0
LINE
8
0
10
157.2457358
20
-123.8477313
11
158.6838056
21
-140.2849438
0
LINE
8
0
10
157.202158
20
-123.3496339
11
174.6355652
21
-121.8244084
0
LINE
8
0
10
174.6355652
20
-121.8244084
11
173.1974954
21
-105.3871959
0
LINE
8
0
10
173.1974954
20
-105.3871959
11
155.7640882
21
-106.9124214
0
LINE
8
0
10
155.7640882
20
-106.9124214
11
157.202158
21
-123.3496339
0
LINE
8
0
10
155.7205104
20
-106.414324
11
173.1539176
21
-104.8890985
0
LINE
8
0
10
173.1539176
20
-104.8890985
11
171.7158478
21
-88.451886
0
LINE
8
0
10
171.7158478
20
-88.451886
11
154.2824406
21
-89.9771115
0
LINE
8
0
10
154.2824406
20
-89.9771115
11
155.7205104
21
-106.414324
0
LINE
8
0
10
176.7699536
20
-134.1674991
11
194.2639568
21
-133.7094025
0
LINE
8
0
10
194.2639568
20
-133.7094025
11
193.8320372
21
-117.2150567
0
LINE
8
0
10
193.8320372
20
-117.2150567
11
176.338034
21
-117.6731533
0
LINE
8
0
10
176.338034
20
-117.6731533
11
176.7699536
21
-134.1674991
0
LINE
8
0
10
176.3249455
20
-117.1733246
11
193.8189487
21
-116.715228
0
LINE
8
0
10
193.8189487
20
-116.715228
11
193.3870291
21
-100.2208822
0
LINE
8
0
10
193.3870291
20
-100.2208822
11
175.8930259
21
-100.6789788
0
LINE
8
0
10
175.8930259
20
-100.6789788
11
176.3249455
21
-117.1733246
0
LINE
8
0
10
175.8799374
20
-100.1791501
11
193.3739406
21
-99.7210535
0
LINE
8
0
10
193.3739406
20
-99.7210535
11
192.942021
21
-83.2267077
0
LINE
8
0
10
192.942021
20
-83.2267077
11
175.4480178
21
-83.6848043
0
LINE
8
0
10
175.4480178
20
-83.6848043
11
175.8799374
21
-100.1791501
0
LINE
8
0
10
196.4292641
20
-147.5248455
11
213.8167716
21
-149.5059017
0
LINE
8
0
10
213.8167716
20
-149.5059017
11
215.6846247
21
-133.1119661
0
LINE
8
0
10
215.6846247
20
-133.1119661
11
198.2971172
21
-131.1309099
0
LINE
8
0
10
198.2971172
20
-131.1309099
11
196.4292641
21
-147.5248455
0
LINE
8
0
10
198.3537187
20
-130.634124
11
215.7412262
21
-132.6151802
0
LINE
8
0
10
215.7412262
20
-132.6151802
11
217.6090793
21
-116.2212446
0
LINE
8
0
10
217.6090793
20
-116.2212446
11
200.2215718
21
-114.2401884
0
LINE
8
0
10
200.2215718
20
-114.2401884
11
198.3537187
21
-130.634124
0
LINE
8
0
10
200.2781733
20
-113.7434025
11
217.6656808
21
-115.7244587
0
LINE
8
0
10
217.6656808
20
-115.7244587
11
219.5335339
21
-99.3305231
0
LINE
8
0
10
219.5335339
20
-99.3305231
11
202.1460264
21
-97.3494669
0
LINE
8
0
10
202.1460264
20
-97.3494669
11
200.2781733
21
-113.7434025
0
LINE
8
0
10
213.9739478
20
-152.5432189
11
231.3614553
21
-154.5242751
0
LINE
8
0
10
231.3614553
20
-154.5242751
11
233.2293084
21
-138.1303395
0
LINE
8
0
10
233.2293084
20
-138.1303395
11
215.8418009
21
-136.1492833
0
LINE
8
0
10
215.8418009
20
-136.1492833
11
213.9739478
21
-152.5432189
0
LINE
8
0
10
215.8984024
20
-135.6524974
11
233.2859099
21
-137.6335536
0
LINE
8
0
10
233.2859099
20
-137.6335536
11
235.153763
21
-121.239618
0
LINE
8
0
10
235.153763
20
-121.239618
11
217.7662555
21
-119.2585618
0
LINE
8
0
10
217.7662555
20
-119.2585618
11
215.8984024
21
-135.6524974
0
LINE
8
0
10
217.822857
20
-118.7617759
11
235.2103645
21
-120.7428321
0
LINE
8
0
10
235.2103645
20
-120.7428321
11
237.0782176
21
-104.3488965
0
LINE
8
0
10
237.0782176
20
-104.3488965
11
219.6907101
21
-102.3678403
0
LINE
8
0
10
219.6907101
20
-102.3678403
11
217.822857
21
-118.7617759
0
LINE
8
0
10
195.9176973
20
-169.6484408
11
213.0663796
21
-173.1373796
0
LINE
8
0
10
213.0663796
20
-173.1373796
11
216.3559505
21
-156.968622
0
LINE
8
0
10
216.3559505
20
-156.968622
11
199.2072682
21
-153.4796832
0
LINE
8
0
10
199.2072682
20
-153.4796832
11
195.9176973
21
-169.6484408
0
LINE
8
0
10
214.3345625
20
-174.1117218
11
230.8307886
21
-179.9533418
0
LINE
8
0
10
230.8307886
20
-179.9533418
11
236.3386017
21
-164.3997572
0
LINE
8
0
10
236.3386017
20
-164.3997572
11
219.8423756
21
-158.5581372
0
LINE
8
0
10
219.8423756
20
-158.5581372
11
214.3345625
21
-174.1117218
0
LINE
8
0
10
245.6006676
20
-189.85097
11
255.0034107
21
-175.0916197
0
LINE
8
0
10
255.0034107
20
-175.0916197
11
241.0874518
21
-166.2261762
0
LINE
8
0
10
241.0874518
20
-166.2261762
11
231.6847087
21
-180.9855265
0
LINE
8
0
10
231.6847087
20
-180.9855265
11
245.6006676
21
-189.85097
0
ENDSEC
0
EOF