0
SECTION
2
HEADER
9
$INSUNITS
70
4
0
ENDSEC
0
SECTION
2
TABLES
0
TABLE
2
LTYPE
0
LTYPE
72
65
70
64
2
CONTINUOUS
3
______
73
0
40
0
0
ENDTAB
0
TABLE
2
LAYER
0
ENDTAB
0
ENDSEC
0
SECTION
2
ENTITIES
0
LINE
8
0
10
157.0963406
20
-97.8577591
11
133.8452621
21
-105.8637474
0
LINE
8
0
10
133.2039716
20
-107.0645781
11
145.9919439
21
-155.4922171
0
LINE
8
0
10
146.6356153
20
-156.18324
11
173.7167989
21
-165.4318626
0
LINE
8
0
10
212.3222183
20
-172.3519454
11
222.44166
21
-173.2191904
0
LINE
8
0
10
222.9086983
20
-173.3819764
11
230.6251917
21
-178.4959265
0
LINE
8
0
10
245.3775054
20
-184.9501495
11
253.8105095
21
-185.6026378
0
LINE
8
0
10
256.3974474
20
-146.4600531
11
239.2846926
21
-117.5348786
0
LINE
8
0
10
239.1477864
20
-116.9559384
11
240.3816699
21
-99.3105827
0
LINE
8
0
10
239.4538623
20
-98.2432621
11
223.5937892
21
-97.1342178
0
LINE
8
0
10
222.6660659
20
-96.0657027
11
222.9781244
21
-91.6785585
0
LINE
8
0
10
222.0678003
20
-90.6114128
11
198.1248907
21
-88.5166796
0
LINE
8
0
10
197.3495078
20
-87.0144936
11
198.8462035
21
-84.4631498
0
LINE
8
0
10
198.0011173
20
-82.9573108
11
180.9194886
21
-82.6591498
0
LINE
8
0
10
179.9160491
20
-83.8258188
11
181.0780386
21
-90.6936862
0
LINE
8
0
10
180.057152
20
-91.8598983
11
160.625556
21
-91.181332
0
LINE
8
0
10
159.6492644
20
-91.8434085
11
157.7121645
21
-97.2495548
0
ARC
8
0
10
134.1708303
20
-106.809266
40
1
50
109.000002
51
194.7920792
0
ARC
8
0
10
146.9588026
20
-155.236905
40
1
50
194.7920792
51
251.1442104
0
ARC
8
0
10
222.3562721
20
-174.2155382
40
1
50
56.4663795
51
85.1016691
0
ARC
8
0
10
240.1453505
20
-117.0256949
40
1
50
175.9999987
51
210.6094707
0
ARC
8
0
10
239.3841058
20
-99.2408262
40
1
50
355.9999987
51
85.9999987
0
ARC
8
0
10
223.6635457
20
-96.1366537
40
1
50
175.9313887
51
265.9999987
0
ARC
8
0
10
221.9806446
20
-91.6076075
40
1
50
355.9313887
51
85.0000024
0
ARC
8
0
10
198.2120464
20
-87.5204849
40
1
50
149.6028213
51
265.0000024
0
ARC
8
0
10
197.9836649
20
-83.9571585
40
1
50
329.6028213
51
89.0000004
0
ARC
8
0
10
180.9020362
20
-83.6589975
40
1
50
89.0000004
51
189.6030543
0
ARC
8
0
10
180.0920515
20
-90.8605075
40
1
50
267.9999998
51
9.6030543
0
ARC
8
0
10
160.5906565
20
-92.1807228
40
1
50
87.9999998
51
160.2866693
0
ARC
8
0
10
156.7707724
20
-96.9122405
40
1
50
289.000002
51
340.2866693
0
ARC
8
0
10
157.9016694
20
-364.8055862
40
200
50
434.2105692
51
445.4645641
0
ARC
8
0
10
157.9016694
20
-364.8055862
40
200
50
424.0632183
51
428.6774671
0
ARC
8
0
10
503.7908454
20
-182.467089
40
250
50
531.7189948
51
540.7186337
0
ENDSEC
0
EOF