0
SECTION
2
HEADER
9
$INSUNITS
70
4
0
ENDSEC
0
SECTION
2
TABLES
0
TABLE
2
LTYPE
0
LTYPE
72
65
70
64
2
CONTINUOUS
3
______
73
0
40
0
0
ENDTAB
0
TABLE
2
LAYER
0
ENDTAB
0
ENDSEC
0
SECTION
2
ENTITIES
0
LINE
8
0
10
153.3880932
20
-104.0576494
11
130.048039
21
-110.3115981
0
LINE
8
0
10
129.3409322
20
-111.5363429
11
142.6498712
21
-161.2059787
0
LINE
8
0
10
143.358222
20
-161.913418
11
164.4105223
21
-167.5253205
0
LINE
8
0
10
244.5956649
20
-191.5409813
11
245.0421791
21
-191.6830837
0
LINE
8
0
10
246.1837912
20
-191.2753074
11
256.7479836
21
-175.0287573
0
LINE
8
0
10
256.9072881
20
-174.5520654
11
256.958016
21
-173.8125927
0
LINE
8
0
10
236.4244101
20
-121.1293797
11
236.4410091
21
-120.9836932
0
LINE
8
0
10
236.4410091
20
-120.9836932
11
238.3484832
21
-104.2420076
0
LINE
8
0
10
237.4681145
20
-103.1352325
11
221.6377549
21
-101.3315909
0
LINE
8
0
10
220.7541664
20
-100.2579793
11
220.8395865
21
-99.1941812
0
LINE
8
0
10
219.955998
20
-98.1205696
11
195.3529046
21
-95.3174012
0
LINE
8
0
10
194.466415
20
-94.3486152
11
194.1836918
21
-82.9454996
0
LINE
8
0
10
193.1578221
20
-81.9706282
11
175.1572266
21
-82.4419904
0
LINE
8
0
10
174.1835653
20
-83.4596348
11
174.2300368
21
-86.0428157
0
LINE
8
0
10
173.3173543
20
-87.0569975
11
153.921523
21
-88.7539129
0
LINE
8
0
10
153.0122321
20
-89.8343343
11
154.1257208
21
-103.0074969
0
ARC
8
0
10
130.306858
20
-111.2775239
40
1
50
104.9999979
51
194.9999979
0
ARC
8
0
10
143.615797
20
-160.9471597
40
1
50
194.9999979
51
255.0737801
0
ARC
8
0
10
245.3454404
20
-190.7301763
40
1
50
252.3464093
51
326.9663766
0
ARC
8
0
10
255.9096328
20
-174.4836262
40
1
50
326.9663766
51
356.0756551
0
ARC
8
0
10
237.3549113
20
-104.1288044
40
1
50
353.5000011
51
83.5000011
0
ARC
8
0
10
221.7509581
20
-100.338019
40
1
50
175.4091524
51
263.5000011
0
ARC
8
0
10
219.8427948
20
-99.1141415
40
1
50
355.4091524
51
83.5000011
0
ARC
8
0
10
195.4661078
20
-94.3238293
40
1
50
181.4202729
51
263.5000011
0
ARC
8
0
10
193.183999
20
-82.9702855
40
1
50
1.4202729
51
91.4999973
0
ARC
8
0
10
175.1834035
20
-83.4416477
40
1
50
91.4999973
51
181.0306405
0
ARC
8
0
10
173.2301986
20
-86.0608028
40
1
50
274.9999976
51
1.0306405
0
ARC
8
0
10
154.0086787
20
-89.7501076
40
1
50
94.9999976
51
184.8315587
0
ARC
8
0
10
153.1292742
20
-103.0917236
40
1
50
284.9999979
51
4.8315587
0
ARC
8
0
10
148.3913945
20
-366.8827571
40
200
50
421.2478706
51
445.4059369
0
ARC
8
0
10
505.8518063
20
-150.3204422
40
250
50
543.0427891
51
545.3919595
0
LINE
8
0
10
233.0196556
20
-159.8461988
11
255.5707712
21
-162.4155737
0
LINE
8
0
10
236.4244101
20
-121.1293797
11
232.139287
21
-158.7394238
0
ARC
8
0
10
233.1328589
20
-158.852627
40
1
50
173.5
51
263.5
0
LINE
8
0
10
256.1661009
20
-163.2402758
11
256.1884812
21
-163.4835495
0
ARC
8
0
10
255.1703059
20
-163.3318856
40
1
50
5.2562244
51
66.3927296
0
ARC
8
0
10
257.1842762
20
-163.3919397
40
1
50
185.2562244
51
191.4746763
0
LINE
8
0
10
145.1209632
20
-158.4507396
11
158.4507396
21
-154.8790368
0
LINE
8
0
10
158.4507396
20
-154.8790368
11
154.8790368
21
-141.5492604
0
LINE
8
0
10
154.8790368
20
-141.5492604
11
141.5492604
21
-145.1209632
0
LINE
8
0
10
141.5492604
20
-145.1209632
11
145.1209632
21
-158.4507396
0
LINE
8
0
10
140.7210394
20
-142.0300006
11
154.0508158
21
-138.4582978
0
LINE
8
0
10
154.0508158
20
-138.4582978
11
150.479113
21
-125.1285214
0
LINE
8
0
10
150.479113
20
-125.1285214
11
137.1493366
21
-128.7002242
0
LINE
8
0
10
137.1493366
20
-128.7002242
11
140.7210394
21
-142.0300006
0
LINE
8
0
10
136.3211156
20
-125.6092616
11
149.650892
21
-122.0375588
0
LINE
8
0
10
149.650892
20
-122.0375588
11
146.0791892
21
-108.7077824
0
LINE
8
0
10
146.0791892
20
-108.7077824
11
132.7494128
21
-112.2794852
0
LINE
8
0
10
132.7494128
20
-112.2794852
11
136.3211156
21
-125.6092616
0
LINE
8
0
10
160.4091055
20
-138.7788428
11
174.1565923
21
-137.5760936
0
LINE
8
0
10
174.1565923
20
-137.5760936
11
172.9538431
21
-123.8286068
0
LINE
8
0
10
172.9538431
20
-123.8286068
11
159.2063563
21
-125.031356
0
LINE
8
0
10
159.2063563
20
-125.031356
11
160.4091055
21
-138.7788428
0
LINE
8
0
10
158.9274579
20
-121.8435329
11
172.6749447
21
-120.6407837
0
LINE
8
0
10
172.6749447
20
-120.6407837
11
171.4721955
21
-106.8932969
0
LINE
8
0
10
171.4721955
20
-106.8932969
11
157.7247087
21
-108.0960461
0
LINE
8
0
10
157.7247087
20
-108.0960461
11
158.9274579
21
-121.8435329
0
LINE
8
0
10
157.4458103
20
-104.908223
11
171.1932971
21
-103.7054738
0
LINE
8
0
10
171.1932971
20
-103.7054738
11
169.9905479
21
-89.957987
0
LINE
8
0
10
169.9905479
20
-89.957987
11
156.2430611
21
-91.1607362
0
LINE
8
0
10
156.2430611
20
-91.1607362
11
157.4458103
21
-104.908223
0
LINE
8
0
10
178.5839808
20
-132.7695344
11
192.3792519
21
-132.4082925
0
LINE
8
0
10
192.3792519
20
-132.4082925
11
192.01801
21
-118.6130214
0
LINE
8
0
10
192.01801
20
-118.6130214
11
178.2227389
21
-118.9742633
0
LINE
8
0
10
178.2227389
20
-118.9742633
11
178.5839808
21
-132.7695344
0
LINE
8
0
10
178.1389727
20
-115.7753599
11
191.9342438
21
-115.414118
0
LINE
8
0
10
191.9342438
20
-115.414118
11
191.5730019
21
-101.6188469
0
LINE
8
0
10
191.5730019
20
-101.6188469
11
177.7777308
21
-101.9800888
0
LINE
8
0
10
177.7777308
20
-101.9800888
11
178.1389727
21
-115.7753599
0
LINE
8
0
10
177.6939646
20
-98.7811854
11
191.4892357
21
-98.4199435
0
LINE
8
0
10
191.4892357
20
-98.4199435
11
191.1279938
21
-84.6246724
0
LINE
8
0
10
191.1279938
20
-84.6246724
11
177.3327227
21
-84.9859143
0
LINE
8
0
10
177.3327227
20
-84.9859143
11
177.6939646
21
-98.7811854
0
LINE
8
0
10
198.4201964
20
-146.3929494
11
212.131488
21
-147.9551538
0
LINE
8
0
10
212.131488
20
-147.9551538
11
213.6936924
21
-134.2438622
0
LINE
8
0
10
213.6936924
20
-134.2438622
11
199.9824008
21
-132.6816578
0
LINE
8
0
10
199.9824008
20
-132.6816578
11
198.4201964
21
-146.3929494
0
LINE
8
0
10
200.344651
20
-129.5022279
11
214.0559426
21
-131.0644323
0
LINE
8
0
10
214.0559426
20
-131.0644323
11
215.618147
21
-117.3531407
0
LINE
8
0
10
215.618147
20
-117.3531407
11
201.9068554
21
-115.7909363
0
LINE
8
0
10
201.9068554
20
-115.7909363
11
200.344651
21
-129.5022279
0
LINE
8
0
10
202.2691056
20
-112.6115064
11
215.9803972
21
-114.1737108
0
LINE
8
0
10
215.9803972
20
-114.1737108
11
217.5426016
21
-100.4624192
0
LINE
8
0
10
217.5426016
20
-100.4624192
11
203.83131
21
-98.9002148
0
LINE
8
0
10
203.83131
20
-98.9002148
11
202.2691056
21
-112.6115064
0
LINE
8
0
10
215.9648801
20
-151.4113228
11
229.6761717
21
-152.9735272
0
LINE
8
0
10
229.6761717
20
-152.9735272
11
231.2383761
21
-139.2622356
0
LINE
8
0
10
231.2383761
20
-139.2622356
11
217.5270845
21
-137.7000312
0
LINE
8
0
10
217.5270845
20
-137.7000312
11
215.9648801
21
-151.4113228
0
LINE
8
0
10
217.8893347
20
-134.5206013
11
231.6006263
21
-136.0828057
0
LINE
8
0
10
231.6006263
20
-136.0828057
11
233.1628307
21
-122.3715141
0
LINE
8
0
10
233.1628307
20
-122.3715141
11
219.4515391
21
-120.8093097
0
LINE
8
0
10
219.4515391
20
-120.8093097
11
217.8893347
21
-134.5206013
0
LINE
8
0
10
219.8137893
20
-117.6298798
11
233.5250809
21
-119.1920842
0
LINE
8
0
10
233.5250809
20
-119.1920842
11
235.0872853
21
-105.4807926
0
LINE
8
0
10
235.0872853
20
-105.4807926
11
221.3759937
21
-103.9185882
0
LINE
8
0
10
221.3759937
20
-103.9185882
11
219.8137893
21
-117.6298798
0
LINE
8
0
10
197.9997047
20
-168.6943731
11
211.5226656
21
-171.4456506
0
LINE
8
0
10
211.5226656
20
-171.4456506
11
214.2739431
21
-157.9226897
0
LINE
8
0
10
214.2739431
20
-157.9226897
11
200.7509822
21
-155.1714122
0
LINE
8
0
10
200.7509822
20
-155.1714122
11
197.9997047
21
-168.6943731
0
LINE
8
0
10
216.5290885
20
-173.4566985
11
229.5375411
21
-178.0632331
0
LINE
8
0
10
229.5375411
20
-178.0632331
11
234.1440757
21
-165.0547805
0
LINE
8
0
10
234.1440757
20
-165.0547805
11
221.1356231
21
-160.4482459
0
LINE
8
0
10
221.1356231
20
-160.4482459
11
216.5290885
21
-173.4566985
0
LINE
8
0
10
245.4560934
20
-187.5653414
11
252.870828
21
-175.9265394
0
LINE
8
0
10
252.870828
20
-175.9265394
11
241.232026
21
-168.5118048
0
LINE
8
0
10
241.232026
20
-168.5118048
11
233.8172914
21
-180.1506068
0
LINE
8
0
10
233.8172914
20
-180.1506068
11
245.4560934
21
-187.5653414
0
ENDSEC
0
EOF