0
SECTION
2
HEADER
9
$INSUNITS
70
4
0
ENDSEC
0
SECTION
2
TABLES
0
TABLE
2
LTYPE
0
LTYPE
72
65
70
64
2
CONTINUOUS
3
______
73
0
40
0
0
ENDTAB
0
TABLE
2
LAYER
0
ENDTAB
0
ENDSEC
0
SECTION
2
ENTITIES
0
LINE
8
0
10
157.0963406
20
-97.8577591
11
133.8452621
21
-105.8637474
0
LINE
8
0
10
133.2039716
20
-107.0645781
11
145.9919439
21
-155.4922171
0
LINE
8
0
10
146.6356153
20
-156.18324
11
173.7167989
21
-165.4318626
0
LINE
8
0
10
212.3222183
20
-172.3519454
11
222.44166
21
-173.2191904
0
LINE
8
0
10
222.9086983
20
-173.3819764
11
230.6251917
21
-178.4959265
0
LINE
8
0
10
245.3775054
20
-184.9501495
11
250.2093436
21
-185.3240041
0
LINE
8
0
10
253.3251584
20
-185.5650846
11
253.8105095
21
-185.6026378
0
LINE
8
0
10
240.2691069
20
-119.1988044
11
239.2846926
21
-117.5348786
0
LINE
8
0
10
239.1477864
20
-116.9559384
11
240.3816699
21
-99.3105827
0
LINE
8
0
10
239.4538623
20
-98.2432621
11
223.5937892
21
-97.1342178
0
LINE
8
0
10
222.6660659
20
-96.0657027
11
222.9781244
21
-91.6785585
0
LINE
8
0
10
222.0678003
20
-90.6114128
11
198.1248907
21
-88.5166796
0
LINE
8
0
10
197.3495078
20
-87.0144936
11
198.8462035
21
-84.4631498
0
LINE
8
0
10
198.0011173
20
-82.9573108
11
180.9194886
21
-82.6591498
0
LINE
8
0
10
179.9160491
20
-83.8258188
11
181.0780386
21
-90.6936862
0
LINE
8
0
10
180.057152
20
-91.8598983
11
160.625556
21
-91.181332
0
LINE
8
0
10
159.6492644
20
-91.8434085
11
157.7121645
21
-97.2495548
0
ARC
8
0
10
134.1708303
20
-106.809266
40
1
50
109.000002
51
194.7920792
0
ARC
8
0
10
146.9588026
20
-155.236905
40
1
50
194.7920792
51
251.1442104
0
ARC
8
0
10
222.3562721
20
-174.2155382
40
1
50
56.4663795
51
85.1016691
0
ARC
8
0
10
240.1453505
20
-117.0256949
40
1
50
175.9999987
51
210.6094707
0
ARC
8
0
10
239.3841058
20
-99.2408262
40
1
50
355.9999987
51
85.9999987
0
ARC
8
0
10
223.6635457
20
-96.1366537
40
1
50
175.9313887
51
265.9999987
0
ARC
8
0
10
221.9806446
20
-91.6076075
40
1
50
355.9313887
51
85.0000024
0
ARC
8
0
10
198.2120464
20
-87.5204849
40
1
50
149.6028213
51
265.0000024
0
ARC
8
0
10
197.9836649
20
-83.9571585
40
1
50
329.6028213
51
89.0000004
0
ARC
8
0
10
180.9020362
20
-83.6589975
40
1
50
89.0000004
51
189.6030543
0
ARC
8
0
10
180.0920515
20
-90.8605075
40
1
50
267.9999998
51
9.6030543
0
ARC
8
0
10
160.5906565
20
-92.1807228
40
1
50
87.9999998
51
160.2866693
0
ARC
8
0
10
156.7707724
20
-96.9122405
40
1
50
289.000002
51
340.2866693
0
ARC
8
0
10
157.9016694
20
-364.8055862
40
200
50
434.2105692
51
445.4645641
0
ARC
8
0
10
157.9016694
20
-364.8055862
40
200
50
424.0632183
51
428.6774671
0
ARC
8
0
10
503.7908454
20
-182.467089
40
250
50
535.2881666
51
537.858636
0
ARC
8
0
10
503.7908454
20
-182.467089
40
250
50
540.5417268
51
540.7186337
0
LINE
8
0
10
232.0494508
20
-156.2996097
11
254.6357347
21
-161.931003
0
LINE
8
0
10
240.2691069
20
-119.1988044
11
231.321077
21
-155.0873921
0
ARC
8
0
10
232.2913727
20
-155.329314
40
1
50
166
51
256
0
LINE
8
0
10
253.9654257
20
-173.1258009
11
253.8431243
21
-170.8132908
0
LINE
8
0
10
253.8431243
20
-170.8132908
11
252.4436445
21
-181.2272697
0
LINE
8
0
10
252.4424578
20
-181.2358199
11
252.185027
21
-183.0337311
0
LINE
8
0
10
251.2780393
20
-183.8885499
11
251.0345789
21
-183.9088065
0
LINE
8
0
10
253.3251584
20
-185.5650846
11
253.8020197
21
-184.8307829
0
ARC
8
0
10
251.4525536
20
-181.0940822
40
1
50
351.8515876
51
352.3461755
0
ARC
8
0
10
251.1951228
20
-182.8919934
40
1
50
274.7562261
51
351.8515876
0
ARC
8
0
10
251.1174954
20
-184.905363
40
1
50
94.7562261
51
204.7488233
0
LINE
8
0
10
148.6756447
20
-152.8663837
11
162.2220998
21
-150.2332196
0
LINE
8
0
10
162.2220998
20
-150.2332196
11
159.5889357
21
-136.6867645
0
LINE
8
0
10
159.5889357
20
-136.6867645
11
146.0424806
21
-139.3199286
0
LINE
8
0
10
146.0424806
20
-139.3199286
11
148.6756447
21
-152.8663837
0
LINE
8
0
10
145.5186869
20
-136.6350561
11
158.8484633
21
-133.0633533
0
LINE
8
0
10
158.8484633
20
-133.0633533
11
155.2767605
21
-119.7335769
0
LINE
8
0
10
155.2767605
20
-119.7335769
11
141.9469841
21
-123.3052797
0
LINE
8
0
10
141.9469841
20
-123.3052797
11
145.5186869
21
-136.6350561
0
LINE
8
0
10
141.2371791
20
-120.6634854
11
154.2853354
21
-116.1706449
0
LINE
8
0
10
154.2853354
20
-116.1706449
11
149.7924949
21
-103.1224886
0
LINE
8
0
10
149.7924949
20
-103.1224886
11
136.7443386
21
-107.6153291
0
LINE
8
0
10
136.7443386
20
-107.6153291
11
141.2371791
21
-120.6634854
0
LINE
8
0
10
164.9521934
20
-142.7949627
11
178.6178928
21
-140.8743739
0
LINE
8
0
10
178.6178928
20
-140.8743739
11
176.697304
21
-127.2086745
0
LINE
8
0
10
176.697304
20
-127.2086745
11
163.0316046
21
-129.1292633
0
LINE
8
0
10
163.0316046
20
-129.1292633
11
164.9521934
21
-142.7949627
0
LINE
8
0
10
162.9196484
20
-125.2797502
11
176.700736
21
-124.557514
0
LINE
8
0
10
176.700736
20
-124.557514
11
175.9784998
21
-110.7764264
0
LINE
8
0
10
175.9784998
20
-110.7764264
11
162.1974122
21
-111.4986626
0
LINE
8
0
10
162.1974122
20
-111.4986626
11
162.9196484
21
-125.2797502
0
LINE
8
0
10
162.4213891
20
-107.6540404
11
176.2129825
21
-108.1356534
0
LINE
8
0
10
176.2129825
20
-108.1356534
11
176.6945955
21
-94.34406
0
LINE
8
0
10
176.6945955
20
-94.34406
11
162.9030021
21
-93.862447
0
LINE
8
0
10
162.9030021
20
-93.862447
11
162.4213891
21
-107.6540404
0
LINE
8
0
10
181.9350276
20
-133.0845534
11
195.7329258
21
-133.3253966
0
LINE
8
0
10
195.7329258
20
-133.3253966
11
195.973769
21
-119.5274984
0
LINE
8
0
10
195.973769
20
-119.5274984
11
182.1758708
21
-119.2866552
0
LINE
8
0
10
182.1758708
20
-119.2866552
11
181.9350276
21
-133.0845534
0
LINE
8
0
10
182.2317185
20
-116.0871426
11
196.0296167
21
-116.3279858
0
LINE
8
0
10
196.0296167
20
-116.3279858
11
196.2704599
21
-102.5300876
0
LINE
8
0
10
196.2704599
20
-102.5300876
11
182.4725617
21
-102.2892444
0
LINE
8
0
10
182.4725617
20
-102.2892444
11
182.2317185
21
-116.0871426
0
LINE
8
0
10
182.5284094
20
-99.0897318
11
196.3263076
21
-99.330575
0
LINE
8
0
10
196.3263076
20
-99.330575
11
196.5671508
21
-85.5326768
0
LINE
8
0
10
196.5671508
20
-85.5326768
11
182.7692526
21
-85.2918336
0
LINE
8
0
10
182.7692526
20
-85.2918336
11
182.5284094
21
-99.0897318
0
LINE
8
0
10
199.4514064
20
-138.3030656
11
212.9498433
21
-141.1722469
0
LINE
8
0
10
212.9498433
20
-141.1722469
11
215.8190246
21
-127.67381
0
LINE
8
0
10
215.8190246
20
-127.67381
11
202.3205877
21
-124.8046287
0
LINE
8
0
10
202.3205877
20
-124.8046287
11
199.4514064
21
-138.3030656
0
LINE
8
0
10
202.594052
20
-122.0661545
11
216.2597514
21
-123.9867433
0
LINE
8
0
10
216.2597514
20
-123.9867433
11
218.1803402
21
-110.3210439
0
LINE
8
0
10
218.1803402
20
-110.3210439
11
204.5146408
21
-108.4004551
0
LINE
8
0
10
204.5146408
20
-108.4004551
11
202.594052
21
-122.0661545
0
LINE
8
0
10
204.7828868
20
-105.5618242
11
218.5303736
21
-106.7645734
0
LINE
8
0
10
218.5303736
20
-106.7645734
11
219.7331228
21
-93.0170866
0
LINE
8
0
10
219.7331228
20
-93.0170866
11
205.985636
21
-91.8143374
0
LINE
8
0
10
205.985636
20
-91.8143374
11
204.7828868
21
-105.5618242
0
LINE
8
0
10
216.2415535
20
-145.7108003
11
229.6316345
21
-149.0493225
0
LINE
8
0
10
229.6316345
20
-149.0493225
11
232.9701567
21
-135.6592415
0
LINE
8
0
10
232.9701567
20
-135.6592415
11
219.5800757
21
-132.3207193
0
LINE
8
0
10
219.5800757
20
-132.3207193
11
216.2415535
21
-145.7108003
0
LINE
8
0
10
220.1491466
20
-129.8690114
11
233.814846
21
-131.7896002
0
LINE
8
0
10
233.814846
20
-131.7896002
11
235.7354348
21
-118.1239008
0
LINE
8
0
10
235.7354348
20
-118.1239008
11
222.0697354
21
-116.203312
0
LINE
8
0
10
222.0697354
20
-116.203312
11
220.1491466
21
-129.8690114
0
LINE
8
0
10
222.4485878
20
-113.4941846
11
236.2149717
21
-114.4568239
0
LINE
8
0
10
236.2149717
20
-114.4568239
11
237.177611
21
-100.69044
0
LINE
8
0
10
237.177611
20
-100.69044
11
223.4112271
21
-99.7278007
0
LINE
8
0
10
223.4112271
20
-99.7278007
11
222.4485878
21
-113.4941846
0
LINE
8
0
10
191.8073724
20
-163.3359277
11
205.5045093
21
-165.0177246
0
LINE
8
0
10
205.5045093
20
-165.0177246
11
207.1863062
21
-151.3205877
0
LINE
8
0
10
207.1863062
20
-151.3205877
11
193.4891693
21
-149.6387908
0
LINE
8
0
10
193.4891693
20
-149.6387908
11
191.8073724
21
-163.3359277
0
LINE
8
0
10
209.9869333
20
-166.1535397
11
222.9546915
21
-170.8734177
0
LINE
8
0
10
222.9546915
20
-170.8734177
11
227.6745695
21
-157.9056595
0
LINE
8
0
10
227.6745695
20
-157.9056595
11
214.7068113
21
-153.1857815
0
LINE
8
0
10
214.7068113
20
-153.1857815
11
209.9869333
21
-166.1535397
0
LINE
8
0
10
227.047361
20
-172.9666767
11
238.6210149
21
-180.4826954
0
LINE
8
0
10
238.6210149
20
-180.4826954
11
246.1370336
21
-168.9090415
0
LINE
8
0
10
246.1370336
20
-168.9090415
11
234.5633797
21
-161.3930228
0
LINE
8
0
10
234.5633797
20
-161.3930228
11
227.047361
21
-172.9666767
0
ENDSEC
0
EOF