0
SECTION
2
HEADER
9
$INSUNITS
70
4
0
ENDSEC
0
SECTION
2
TABLES
0
TABLE
2
LTYPE
0
LTYPE
72
65
70
64
2
CONTINUOUS
3
______
73
0
40
0
0
ENDTAB
0
TABLE
2
LAYER
0
ENDTAB
0
ENDSEC
0
SECTION
2
ENTITIES
0
LINE
8
0
10
153.0337977
20
-144.8341437
11
153.0337977
21
-144.8341437
0
LINE
8
0
10
153.0337977
20
-144.8341437
11
153.0337977
21
-144.8341437
0
LINE
8
0
10
153.0337977
20
-144.8341437
11
153.0337977
21
-144.8341437
0
LINE
8
0
10
149.1342853
20
-127.9173975
11
149.1342853
21
-127.9173975
0
LINE
8
0
10
149.1342853
20
-127.9173975
11
149.1342853
21
-127.9173975
0
LINE
8
0
10
149.1342853
20
-127.9173975
11
149.1342853
21
-127.9173975
0
LINE
8
0
10
144.0642193
20
-111.3138759
11
144.0642193
21
-111.3138759
0
LINE
8
0
10
144.0642193
20
-111.3138759
11
144.0642193
21
-111.3138759
0
LINE
8
0
10
144.0642193
20
-111.3138759
11
144.0642193
21
-111.3138759
0
LINE
8
0
10
169.9487102
20
-134.5173384
11
169.9487102
21
-134.5173384
0
LINE
8
0
10
169.9487102
20
-134.5173384
11
169.9487102
21
-134.5173384
0
LINE
8
0
10
169.9487102
20
-134.5173384
11
169.9487102
21
-134.5173384
0
LINE
8
0
10
168.255882
20
-117.0832673
11
168.255882
21
-117.0832673
0
LINE
8
0
10
168.255882
20
-117.0832673
11
168.255882
21
-117.0832673
0
LINE
8
0
10
168.255882
20
-117.0832673
11
168.255882
21
-117.0832673
0
LINE
8
0
10
168.0889749
20
-99.5679985
11
168.0889749
21
-99.5679985
0
LINE
8
0
10
168.0889749
20
-99.5679985
11
168.0889749
21
-99.5679985
0
LINE
8
0
10
168.0889749
20
-99.5679985
11
168.0889749
21
-99.5679985
0
LINE
8
0
10
188.99804
20
-129.8061019
11
188.99804
21
-129.8061019
0
LINE
8
0
10
188.99804
20
-129.8061019
11
188.99804
21
-129.8061019
0
LINE
8
0
10
188.99804
20
-129.8061019
11
188.99804
21
-129.8061019
0
LINE
8
0
10
189.2947309
20
-112.8086911
11
189.2947309
21
-112.8086911
0
LINE
8
0
10
189.2947309
20
-112.8086911
11
189.2947309
21
-112.8086911
0
LINE
8
0
10
189.2947309
20
-112.8086911
11
189.2947309
21
-112.8086911
0
LINE
8
0
10
189.5914218
20
-95.8112803
11
189.5914218
21
-95.8112803
0
LINE
8
0
10
189.5914218
20
-95.8112803
11
189.5914218
21
-95.8112803
0
LINE
8
0
10
189.5914218
20
-95.8112803
11
189.5914218
21
-95.8112803
0
LINE
8
0
10
207.6788571
20
-136.4885138
11
207.6788571
21
-136.4885138
0
LINE
8
0
10
207.6788571
20
-136.4885138
11
207.6788571
21
-136.4885138
0
LINE
8
0
10
207.6788571
20
-136.4885138
11
207.6788571
21
-136.4885138
0
LINE
8
0
10
210.6992363
20
-119.3929059
11
210.6992363
21
-119.3929059
0
LINE
8
0
10
210.6992363
20
-119.3929059
11
210.6992363
21
-119.3929059
0
LINE
8
0
10
210.6992363
20
-119.3929059
11
210.6992363
21
-119.3929059
0
LINE
8
0
10
212.5197287
20
-102.128251
11
212.5197287
21
-102.128251
0
LINE
8
0
10
212.5197287
20
-102.128251
11
212.5197287
21
-102.128251
0
LINE
8
0
10
212.5197287
20
-102.128251
11
212.5197287
21
-102.128251
0
LINE
8
0
10
224.2582376
20
-144.1019324
11
224.2582376
21
-144.1019324
0
LINE
8
0
10
224.2582376
20
-144.1019324
11
224.2582376
21
-144.1019324
0
LINE
8
0
10
224.2582376
20
-144.1019324
11
224.2582376
21
-144.1019324
0
LINE
8
0
10
227.873405
20
-127.1221485
11
227.873405
21
-127.1221485
0
LINE
8
0
10
227.873405
20
-127.1221485
11
227.873405
21
-127.1221485
0
LINE
8
0
10
227.873405
20
-127.1221485
11
227.873405
21
-127.1221485
0
LINE
8
0
10
230.0519683
20
-109.5840083
11
230.0519683
21
-109.5840083
0
LINE
8
0
10
230.0519683
20
-109.5840083
11
230.0519683
21
-109.5840083
0
LINE
8
0
10
230.0519683
20
-109.5840083
11
230.0519683
21
-109.5840083
0
LINE
8
0
10
192.0472562
20
-159.2867167
11
192.0472562
21
-159.2867167
0
LINE
8
0
10
192.0472562
20
-159.2867167
11
192.0472562
21
-159.2867167
0
LINE
8
0
10
192.0472562
20
-159.2867167
11
192.0472562
21
-159.2867167
0
LINE
8
0
10
211.0492122
20
-163.8663821
11
211.0492122
21
-163.8663821
0
LINE
8
0
10
211.0492122
20
-163.8663821
11
211.0492122
21
-163.8663821
0
LINE
8
0
10
211.0492122
20
-163.8663821
11
211.0492122
21
-163.8663821
0
LINE
8
0
10
228.5337033
20
-172.5825076
11
228.5337033
21
-172.5825076
0
LINE
8
0
10
228.5337033
20
-172.5825076
11
228.5337033
21
-172.5825076
0
LINE
8
0
10
228.5337033
20
-172.5825076
11
228.5337033
21
-172.5825076
0
ENDSEC
0
EOF